<?xml version="1.0" encoding="utf-8"?>
<!-- Generator: Adobe Illustrator 19.1.0, SVG Export Plug-In . SVG Version: 6.00 Build 0)  -->
<svg version="1.1" id="Layer_1" xmlns="http://www.w3.org/2000/svg" xmlns:xlink="http://www.w3.org/1999/xlink" x="0px" y="0px"
	 viewBox="0 0 20 45" style="enable-background:new 0 0 20 45;" xml:space="preserve">
<style type="text/css">
	.st0{fill:#FFFFFF;}
</style>
<g>
	<path class="st0" d="M15.2,38.1c-0.7-0.7-1.7-0.7-2.4,0l-3.2,3.2L6.4,38c-0.7-0.7-1.7-0.7-2.4,0c-0.7,0.7-0.7,1.7,0,2.4l4.3,4.3
		c0,0.1,0.1,0.1,0.1,0.2c0.7,0.7,1.7,0.7,2.4,0l4.4-4.4C15.8,39.8,15.8,38.7,15.2,38.1z"/>
</g>
<g>
	<path class="st0" d="M9.3,34.6c-5.5,0-9.9-4.4-9.9-9.9v-10c0-5.5,4.4-9.9,9.9-9.9c5.5,0,9.9,4.4,9.9,9.9v10
		C19.2,30.1,14.8,34.6,9.3,34.6z M9.3,7.7c-3.8,0-6.9,3.1-6.9,6.9v10c0,3.8,3.1,6.9,6.9,6.9c3.8,0,6.9-3.1,6.9-6.9v-10
		C16.2,10.8,13.1,7.7,9.3,7.7z"/>
</g>
<g>
	<path class="st0" d="M10.2,7.3H9C8.6,7.3,8.3,7,8.3,6.6v-6C8.3,0.3,8.6,0,9,0h1.3c0.4,0,0.7,0.3,0.7,0.7v6
		C10.9,7,10.6,7.3,10.2,7.3z"/>
</g>
<g>
	<circle class="st0" cx="9.6" cy="13.8" r="1.8"/>
</g>
</svg>
